<svg width="53" height="57" viewBox="0 0 53 57" fill="none" xmlns="http://www.w3.org/2000/svg">
<g clip-path="url(#clip0_252_1785)">
<path d="M26.8352 7.18295L25.9647 7.1907C25.8193 7.19361 25.6739 7.18779 25.5295 7.19846L25.0952 7.22465L24.6599 7.24987L24.4428 7.26248C24.3701 7.26732 24.2984 7.27799 24.2266 7.28478L23.361 7.37983C23.2156 7.39147 23.074 7.42057 22.9296 7.44287L22.4992 7.51174L22.0688 7.5806L21.6423 7.67177L21.2157 7.76197C21.0742 7.79397 20.9298 7.81725 20.7902 7.85798L19.9468 8.08203C19.8053 8.11597 19.6667 8.16156 19.528 8.20617L19.1122 8.33905L18.6954 8.47192C18.5577 8.52041 18.423 8.57376 18.2863 8.62419L17.8772 8.77743C17.7415 8.82981 17.6019 8.87539 17.4701 8.93649L16.6664 9.28371C15.6069 9.7735 14.5736 10.3263 13.5887 10.9606C12.6096 11.6027 11.6693 12.3078 10.7814 13.0769C9.90407 13.8577 9.07719 14.6966 8.3075 15.5889C7.54848 16.489 6.85538 17.4453 6.22334 18.4423L5.7687 19.2027C5.69019 19.3278 5.6233 19.4597 5.5535 19.5897L5.34509 19.9805L5.13667 20.3714L4.94764 20.772L4.75764 21.1725C4.69463 21.3064 4.62872 21.4392 4.5754 21.577L4.23612 22.3965C4.17602 22.5323 4.13336 22.6739 4.08102 22.8126L3.93173 23.2306C3.8823 23.3703 3.83092 23.509 3.78342 23.6496L3.65546 24.0744L3.52653 24.5002C3.48291 24.6418 3.43832 24.7834 3.40633 24.9279L3.19113 25.7911C3.15139 25.9347 3.12812 26.0811 3.09904 26.2266L3.01373 26.663L2.92746 27.1005L2.86348 27.5417C2.82374 27.8356 2.77333 28.1295 2.74134 28.4253L2.65894 29.3137L2.63762 29.5358C2.63277 29.6105 2.63083 29.6842 2.62792 29.7589L2.6095 30.205C2.57073 30.8006 2.59302 31.3961 2.59399 31.9935C2.60563 32.2913 2.62792 32.589 2.6444 32.8868C2.65409 33.0352 2.65894 33.1845 2.67251 33.3339L2.72195 33.7791L2.77042 34.2242C2.7869 34.3726 2.80047 34.522 2.82761 34.6684L2.97011 35.553C2.99047 35.7014 3.02537 35.8469 3.05542 35.9923L3.14848 36.4307L3.24154 36.8691L3.35592 37.3026L3.47128 37.7362C3.51199 37.8797 3.54301 38.0271 3.59245 38.1688L3.86582 39.0242C3.90847 39.1677 3.96179 39.3074 4.0151 39.448L4.17311 39.869L4.33015 40.2899L4.50754 40.7031L4.68591 41.1162C4.74601 41.253 4.80127 41.3936 4.87009 41.5265L5.26657 42.3344C5.82299 43.3984 6.44436 44.4303 7.14425 45.4109C7.8519 46.3846 8.62449 47.3128 9.45719 48.1876C10.3025 49.0489 11.2059 49.8549 12.1598 50.5997C13.1205 51.3359 14.1383 51.9964 15.192 52.5948L15.9947 53.0235C16.1265 53.0982 16.2661 53.1583 16.4028 53.2242L16.8138 53.4182L17.2258 53.6122L17.6465 53.7858L18.0672 53.9604C18.2078 54.0186 18.3473 54.0787 18.4918 54.1262L19.3507 54.4327C19.4932 54.488 19.6405 54.5239 19.7849 54.5704L20.2212 54.7023L20.6583 54.8333L21.1013 54.9429L21.5444 55.0534C21.6917 55.0893 21.839 55.1301 21.9893 55.1553L22.886 55.3308C23.0353 55.3638 23.1865 55.3822 23.3367 55.4045L23.7894 55.4695L24.2421 55.5345C24.3934 55.5529 24.5455 55.5636 24.6977 55.5791C25.0021 55.6063 25.3055 55.6383 25.6099 55.6606C26.2197 55.6819 26.8313 55.7256 27.443 55.7062L27.9015 55.7023C27.9781 55.7013 28.0547 55.7023 28.1313 55.6994L28.36 55.6858L29.2771 55.6315C29.5824 55.6082 29.8858 55.5675 30.1902 55.5355L30.6468 55.4841L31.1005 55.4104L31.5541 55.3366C31.7054 55.3105 31.8576 55.292 32.0068 55.2561L32.9064 55.0641C33.0576 55.035 33.205 54.9943 33.3533 54.9545L33.7983 54.8362L34.2432 54.7179C34.3905 54.6742 34.5359 54.6247 34.6823 54.5782L35.1215 54.4376C35.2669 54.3891 35.4161 54.3483 35.5586 54.2911L36.4224 53.9672C36.5678 53.9158 36.7083 53.8527 36.8489 53.7916L37.2725 53.6083L37.6961 53.425L38.111 53.2213L38.5259 53.0177C38.6636 52.9488 38.8041 52.8848 38.9369 52.8072L39.7464 52.3591C40.8098 51.7335 41.8344 51.042 42.8057 50.2758C43.7683 49.4999 44.6805 48.659 45.5345 47.7599C46.3769 46.8502 47.1563 45.8813 47.8707 44.8648C48.5784 43.8426 49.2026 42.7641 49.762 41.6516L50.1604 40.8059C50.2302 40.6662 50.2835 40.5197 50.3446 40.3762L50.5229 39.9436C50.5821 39.7991 50.6431 39.6556 50.7003 39.5111L50.8574 39.0707L51.0144 38.6294C51.0677 38.483 51.121 38.3356 51.1627 38.1852L51.4332 37.2881C51.4816 37.1397 51.5127 36.9865 51.5524 36.8352L51.6648 36.3803L51.7773 35.9254L51.8674 35.4647L51.9576 35.004C51.9857 34.8498 52.0216 34.6975 52.04 34.5424L52.1738 33.6132C52.1844 33.5356 52.197 33.458 52.2058 33.3804L52.2271 33.1467L52.2707 32.6792L52.3143 32.2108C52.3308 32.0546 52.3298 31.8975 52.3386 31.7413L52.3773 30.8015L52.3686 31.7423C52.3647 31.8994 52.3706 32.0566 52.3599 32.2127L52.3318 32.6831L52.3037 33.1535L52.2891 33.3892C52.2833 33.4677 52.2726 33.5453 52.2649 33.6239L52.1612 34.5608C52.1476 34.7179 52.1166 34.8721 52.0933 35.0273L52.0177 35.4928L51.9421 35.9584L51.8442 36.4201L51.7453 36.8817C51.7104 37.035 51.6842 37.1911 51.6396 37.3424L51.3963 38.256C51.3585 38.4093 51.3091 38.5586 51.2606 38.709L51.1162 39.159L50.9717 39.61C50.9194 39.7584 50.8612 39.9058 50.8069 40.0532L50.6402 40.4965C50.583 40.6439 50.5336 40.7942 50.4677 40.9368L50.0915 41.8058C49.5603 42.9522 48.9613 44.0695 48.274 45.1335C47.5799 46.1926 46.817 47.2081 45.9843 48.1663C45.14 49.1148 44.2336 50.0071 43.2681 50.8364C42.2948 51.6559 41.2615 52.4047 40.1835 53.0855L39.3625 53.5753C39.2268 53.6597 39.0843 53.7315 38.9437 53.8071L38.5211 54.0321L38.0984 54.2572L37.6651 54.4618L37.2318 54.6665C37.0873 54.7343 36.9439 54.8042 36.7946 54.8624L35.9086 55.228C35.7622 55.292 35.6091 55.3396 35.4588 55.3948L35.0071 55.5558C34.8558 55.6092 34.7056 55.6645 34.5544 55.7149L34.0949 55.8536L33.6354 55.9923C33.4822 56.0388 33.3291 56.0864 33.173 56.1222L32.2405 56.3531C32.0854 56.3948 31.9274 56.42 31.7703 56.452L31.2982 56.5441L30.8261 56.6363L30.3502 56.7051C30.0322 56.7478 29.7152 56.8012 29.3963 56.8361L28.4376 56.9243L28.1982 56.9467C28.1177 56.9515 28.0382 56.9534 27.9578 56.9573L27.4769 56.9767C26.8352 57.0175 26.1925 56.9932 25.5489 56.9903C25.228 56.9777 24.9071 56.9534 24.5853 56.936C24.4244 56.9253 24.2635 56.9185 24.1035 56.904L23.6237 56.8506L23.1438 56.7973C22.9839 56.7789 22.823 56.7643 22.665 56.7352L21.7101 56.58C21.5502 56.5577 21.3931 56.5209 21.2351 56.4869L20.7621 56.3851L20.289 56.2832L19.8208 56.1601L19.3526 56.035C19.1975 55.9913 19.0385 55.9564 18.8863 55.9031L17.9635 55.6063C17.8084 55.5597 17.6581 55.5015 17.5069 55.4443L17.0532 55.2736L16.5996 55.1019L16.1536 54.9099L15.7077 54.7169C15.5594 54.6509 15.4092 54.5918 15.2657 54.5171L14.3942 54.0874C13.2475 53.4851 12.1346 52.813 11.079 52.0555C10.0291 51.2903 9.03066 50.4552 8.08939 49.5552C7.1617 48.6425 6.29411 47.6668 5.4934 46.6358C4.70142 45.5981 3.9899 44.5001 3.34623 43.3605L2.88578 42.4935C2.80629 42.3499 2.74134 42.2006 2.66961 42.0522L2.46022 41.608L2.25277 41.1628L2.06568 40.7089L1.87859 40.254C1.81558 40.1027 1.75257 39.9514 1.70023 39.7962L1.37064 38.869C1.31248 38.7158 1.27176 38.5557 1.22232 38.3996L1.0808 37.9282L0.940235 37.4559L0.821971 36.9777L0.703707 36.4996C0.664932 36.3396 0.62228 36.1815 0.594168 36.0195L0.406109 35.0515C0.371211 34.8905 0.350854 34.7276 0.327589 34.5647L0.257794 34.0768L0.187999 33.588C0.167642 33.4251 0.156009 33.2611 0.140499 33.0972C0.111418 32.7694 0.0774896 32.4416 0.0542245 32.1138C0.0299901 31.4562 -0.0136319 30.7986 0.00672504 30.1401L0.0115719 29.6454C0.0125413 29.563 0.0115719 29.4805 0.0154494 29.3981L0.0299901 29.1518L0.0900915 28.1644C0.115295 27.8356 0.159887 27.5078 0.193815 27.18L0.250039 26.6873L0.329528 26.1985L0.409017 25.7087C0.437129 25.5457 0.458455 25.3818 0.496261 25.2208L0.704677 24.2509C0.736666 24.088 0.780288 23.9289 0.82391 23.7689L0.951868 23.2888L1.0808 22.8087C1.12829 22.6506 1.18064 22.4935 1.23105 22.3354L1.38324 21.8621C1.43559 21.705 1.48018 21.545 1.54222 21.3908L1.89313 20.4597C1.94839 20.3035 2.01624 20.1522 2.08216 19.9999L2.27992 19.5431L2.47864 19.0863L2.69772 18.6392L2.91777 18.1921C2.99144 18.0437 3.0622 17.8924 3.14557 17.7488L3.62929 16.8779C4.30301 15.7325 5.0504 14.6287 5.87631 13.5842C6.71191 12.5474 7.61731 11.5668 8.58572 10.6483C9.56479 9.7415 10.6078 8.90449 11.7032 8.13634C12.8035 7.37595 13.9648 6.70382 15.1639 6.1025L16.0742 5.67381C16.2244 5.59913 16.3824 5.54093 16.5365 5.47595L17.0019 5.28392C17.157 5.22087 17.3121 5.15492 17.4681 5.09382L17.9421 4.92506L18.4171 4.7563C18.5752 4.70005 18.7332 4.64282 18.895 4.59724L19.8605 4.30724C20.0205 4.25584 20.1853 4.22189 20.3481 4.17922L20.8377 4.05798L21.3282 3.93772L21.8235 3.84073L22.3189 3.74471C22.4846 3.71465 22.6485 3.67682 22.8162 3.65645L23.8156 3.51388C23.899 3.50321 23.9823 3.48866 24.0657 3.47993L24.3168 3.45666L24.8199 3.4101L25.323 3.36452C25.4907 3.34803 25.6594 3.34803 25.8271 3.33833L26.8372 3.29857C27.9073 3.25589 28.8089 4.08902 28.8515 5.15977C28.8942 6.23052 28.0615 7.13251 26.9913 7.17519C26.9738 7.17519 26.9564 7.17616 26.9389 7.17616H26.8372L26.8352 7.18295Z" fill="white"/>
<path d="M26.7868 15.3785C26.3855 15.3785 26.0598 15.0526 26.0598 14.6511V12.0324C26.0598 11.6308 26.3855 11.305 26.7868 11.305C27.1882 11.305 27.5139 11.6308 27.5139 12.0324V14.6511C27.5139 15.0526 27.1882 15.3785 26.7868 15.3785Z" fill="white"/>
<path d="M18.7235 17.3241C18.5558 17.3241 18.393 17.2368 18.3038 17.0816L16.9951 14.814C16.8614 14.5822 16.9408 14.2854 17.1725 14.1516C17.4042 14.0177 17.7008 14.0973 17.8346 14.3291L19.1433 16.5966C19.277 16.8284 19.1976 17.1252 18.9659 17.2591C18.8893 17.3027 18.8059 17.3241 18.7235 17.3241Z" fill="white"/>
<path d="M12.8326 23.252C12.7502 23.252 12.6669 23.2306 12.5903 23.187L10.3239 21.8776C10.0922 21.7438 10.0127 21.447 10.1465 21.2152C10.2803 20.9834 10.5769 20.9039 10.8086 21.0377L13.075 22.3471C13.3067 22.4809 13.3862 22.7777 13.2524 23.0095C13.1622 23.1647 12.9994 23.252 12.8326 23.252Z" fill="white"/>
<path d="M10.6952 31.5755H8.07786C7.67654 31.5755 7.35083 31.2496 7.35083 30.8481C7.35083 30.4465 7.67654 30.1207 8.07786 30.1207H10.6952C11.0965 30.1207 11.4222 30.4465 11.4222 30.8481C11.4222 31.2496 11.0965 31.5755 10.6952 31.5755Z" fill="white"/>
<path d="M10.6146 40.7098C10.4469 40.7098 10.284 40.6225 10.1948 40.4674C10.0611 40.2356 10.1406 39.9388 10.3722 39.8049L12.6386 38.4956C12.8703 38.3618 13.167 38.4413 13.3007 38.6731C13.4345 38.9049 13.355 39.2017 13.1233 39.3355L10.8569 40.6449C10.7803 40.6895 10.697 40.7098 10.6146 40.7098Z" fill="white"/>
<path d="M17.4972 47.5621C17.4148 47.5621 17.3314 47.5407 17.2548 47.4971C17.0231 47.3632 16.9436 47.0665 17.0774 46.8347L18.3861 44.5671C18.5198 44.3353 18.8165 44.2557 19.0482 44.3896C19.2798 44.5234 19.3593 44.8202 19.2256 45.052L17.9169 47.3196C17.8267 47.4748 17.6639 47.5621 17.4972 47.5621Z" fill="white"/>
<path d="M26.8838 50.2942C26.4824 50.2942 26.1567 49.9684 26.1567 49.5668V46.9481C26.1567 46.5466 26.4824 46.2207 26.8838 46.2207C27.2851 46.2207 27.6108 46.5466 27.6108 46.9481V49.5668C27.6108 49.9684 27.2851 50.2942 26.8838 50.2942Z" fill="white"/>
<path d="M36.2558 47.5136C36.0881 47.5136 35.9252 47.4263 35.836 47.2711L34.5274 45.0035C34.3936 44.7717 34.4731 44.4749 34.7048 44.3411C34.9364 44.2072 35.2331 44.2868 35.3668 44.5186L36.6755 46.7862C36.8093 47.018 36.7298 47.3147 36.4981 47.4486C36.4215 47.4922 36.3382 47.5136 36.2558 47.5136Z" fill="white"/>
<path d="M43.1034 40.6264C43.021 40.6264 42.9376 40.6051 42.8611 40.5615L40.5946 39.2521C40.363 39.1183 40.2835 38.8215 40.4173 38.5897C40.551 38.3579 40.8477 38.2783 41.0793 38.4122L43.3457 39.7215C43.5774 39.8554 43.6569 40.1522 43.5231 40.384C43.433 40.5391 43.2701 40.6264 43.1024 40.6264H43.1034Z" fill="white"/>
<path d="M45.5926 31.4785H42.9753C42.574 31.4785 42.2483 31.1526 42.2483 30.7511C42.2483 30.3496 42.574 30.0237 42.9753 30.0237H45.5926C45.994 30.0237 46.3197 30.3496 46.3197 30.7511C46.3197 31.1526 45.994 31.4785 45.5926 31.4785Z" fill="white"/>
<path d="M40.7884 23.1685C40.6207 23.1685 40.4579 23.0813 40.3687 22.9261C40.2349 22.6943 40.3144 22.3975 40.5461 22.2636L42.8125 20.9543C43.0442 20.8205 43.3408 20.9 43.4746 21.1318C43.6083 21.3636 43.5288 21.6604 43.2972 21.7942L41.0308 23.1036C40.9542 23.1472 40.8708 23.1685 40.7884 23.1685Z" fill="white"/>
<path d="M34.8626 17.2756C34.7802 17.2756 34.6969 17.2542 34.6203 17.2106C34.3886 17.0767 34.3091 16.78 34.4429 16.5482L35.7515 14.2806C35.8853 14.0488 36.182 13.9692 36.4136 14.1031C36.6453 14.2369 36.7248 14.5337 36.591 14.7655L35.2824 17.0331C35.1922 17.1883 35.0294 17.2756 34.8626 17.2756Z" fill="white"/>
<path d="M14.7637 36.9554V36.7159C14.7811 34.3125 15.7263 32.7578 17.0146 30.9325C18.0625 29.4612 18.4289 28.9966 18.4289 27.5903C18.4289 26.3139 18.2864 25.8018 17.5555 25.8018C16.9099 25.8018 16.6578 26.2848 16.6578 27.2876V27.9491H14.8073V27.2314C14.8073 25.7708 15.2803 24.1268 17.6466 24.1268C19.819 24.1268 20.4423 25.4759 20.4423 27.469C20.4423 29.4621 19.7909 30.3418 18.7323 31.7666C17.8366 32.9741 17.1018 34.2136 17.0049 35.229H20.6856V36.9564H14.7646L14.7637 36.9554Z" fill="white"/>
<path d="M24.5971 36.9554V33.7975H21.0259V32.3097L23.7401 24.282H26.4331V32.1565H27.3821V33.7975H26.4331V36.9554H24.5971ZM24.5971 29.9044C24.5971 28.6368 24.6514 27.3507 24.6727 26.085H24.6533C24.1046 28.1644 23.5453 30.0828 22.921 32.1565H24.5971V29.9044Z" fill="white"/>
<path d="M27.8105 37.5403L30.8525 23.9309H32.3608L29.3363 37.5403H27.8115H27.8105Z" fill="white"/>
<path d="M38.4126 24.282V25.8037C36.9401 28.6319 35.7594 32.4804 35.2331 36.9554H33.1886C33.6472 32.7597 35.0314 28.5766 36.3808 26.0462H32.7166V24.283H38.4126V24.282Z" fill="white"/>
<path d="M33.6694 5.29168L25.7205 0L27.6592 5.29168L25.7205 10.5834L33.6694 5.29168Z" fill="white"/>
</g>
<defs>
<clipPath id="clip0_252_1785">
<rect width="52.3784" height="57" fill="white"/>
</clipPath>
</defs>
</svg>
